<?xml version="1.0" encoding="UTF-8" standalone="no"?>
<!DOCTYPE svg PUBLIC "-//W3C//DTD SVG 1.1//EN"
 "http://www.w3.org/Graphics/SVG/1.1/DTD/svg11.dtd">
<!-- Generated by graphviz version 13.1.0 (20250701.0955)
 -->
<!-- Pages: 1 -->
<svg width="74pt" height="82pt"
 viewBox="0.00 0.00 74.00 82.00" xmlns="http://www.w3.org/2000/svg" xmlns:xlink="http://www.w3.org/1999/xlink">
<g id="graph0" class="graph" transform="scale(1 1) rotate(0) translate(4 77.75)">
<polygon fill="white" stroke="none" points="-4,4 -4,-77.75 69.62,-77.75 69.62,4 -4,4"/>
<!-- Mel_1 -->
<g id="node1" class="node">
<title>Mel_1</title>
<text xml:space="preserve" text-anchor="middle" x="20.62" y="-60.25" font-family="Times,serif" font-size="10.00">H</text>
</g>
<!-- Mora_1 -->
<g id="node4" class="node">
<title>Mora_1</title>
<text xml:space="preserve" text-anchor="middle" x="10.62" y="-33" font-family="Times,serif" font-size="10.00">μ</text>
</g>
<!-- Mel_1&#45;&gt;Mora_1 -->
<g id="edge2" class="edge">
<title>Mel_1&#45;&gt;Mora_1</title>
<path fill="none" stroke="black" stroke-width="0.5" d="M17.24,-54.58C16.2,-51.94 15.05,-49.05 14.01,-46.41"/>
</g>
<!-- Mora_2 -->
<g id="node6" class="node">
<title>Mora_2</title>
<text xml:space="preserve" text-anchor="middle" x="32.62" y="-33" font-family="Times,serif" font-size="10.00">μ</text>
</g>
<!-- Mel_1&#45;&gt;Mora_2 -->
<g id="edge4" class="edge">
<title>Mel_1&#45;&gt;Mora_2</title>
<path fill="none" stroke="black" stroke-width="0.5" d="M24.69,-54.58C25.94,-51.94 27.32,-49.05 28.57,-46.41"/>
</g>
<!-- Mel_2 -->
<g id="node2" class="node">
<title>Mel_2</title>
<text xml:space="preserve" text-anchor="middle" x="54.62" y="-60.25" font-family="Times,serif" font-size="10.00">L</text>
</g>
<!-- Mora_3 -->
<g id="node7" class="node">
<title>Mora_3</title>
<text xml:space="preserve" text-anchor="middle" x="54.62" y="-33" font-family="Times,serif" font-size="10.00">μ</text>
</g>
<!-- Mel_2&#45;&gt;Mora_3 -->
<g id="edge6" class="edge">
<title>Mel_2&#45;&gt;Mora_3</title>
<path fill="none" stroke="black" stroke-width="0.5" d="M54.62,-54.58C54.62,-51.94 54.62,-49.05 54.62,-46.41"/>
</g>
<!-- Syl_1 -->
<g id="node3" class="node">
<title>Syl_1</title>
<text xml:space="preserve" text-anchor="middle" x="10.62" y="-5.75" font-family="Times,serif" font-size="10.00">σ</text>
</g>
<!-- Mora_1&#45;&gt;Syl_1 -->
<g id="edge1" class="edge">
<title>Mora_1&#45;&gt;Syl_1</title>
<path fill="none" stroke="black" stroke-width="0.5" d="M10.62,-27.33C10.62,-24.69 10.62,-21.8 10.62,-19.16"/>
</g>
<!-- Syl_2 -->
<g id="node5" class="node">
<title>Syl_2</title>
<text xml:space="preserve" text-anchor="middle" x="43.62" y="-5.75" font-family="Times,serif" font-size="10.00">σ</text>
</g>
<!-- Mora_2&#45;&gt;Syl_2 -->
<g id="edge3" class="edge">
<title>Mora_2&#45;&gt;Syl_2</title>
<path fill="none" stroke="black" stroke-width="0.5" d="M36.35,-27.33C37.5,-24.69 38.76,-21.8 39.9,-19.16"/>
</g>
<!-- Mora_3&#45;&gt;Syl_2 -->
<g id="edge5" class="edge">
<title>Mora_3&#45;&gt;Syl_2</title>
<path fill="none" stroke="black" stroke-width="0.5" d="M50.9,-27.33C49.75,-24.69 48.49,-21.8 47.35,-19.16"/>
</g>
</g>
</svg>
